<svg width="65" height="20" viewBox="0 0 65 20" fill="none" xmlns="http://www.w3.org/2000/svg">
<path d="M33.9932 5.0253C33.9932 5.74609 33.4124 6.32648 32.6916 6.32648C31.9708 6.32648 31.3904 5.74609 31.3904 5.0253C31.3904 4.30452 31.951 3.72413 32.6916 3.72413C33.4328 3.74412 33.9932 4.32472 33.9932 5.0253ZM28.6277 7.64805V7.96844C28.6277 7.96844 28.0073 7.16726 26.6859 7.16726C24.504 7.16726 22.802 8.82902 22.802 11.1312C22.802 13.4135 24.484 15.0951 26.6859 15.0951C28.0273 15.0951 28.6277 14.2743 28.6277 14.2743V14.6145C28.6277 14.7747 28.7481 14.8945 28.9081 14.8945H30.5295V7.36686H28.9081C28.7481 7.36746 28.6277 7.50785 28.6277 7.64805ZM28.6277 12.4726C28.3277 12.9131 27.7269 13.2935 27.0063 13.2935C25.7252 13.2935 24.744 12.4928 24.744 11.1312C24.744 9.76981 25.7252 8.96902 27.0063 8.96902C27.7071 8.96902 28.3477 9.36941 28.6277 9.7898V12.4726ZM31.7308 7.36745H33.6526V14.8951H31.7308V7.36745ZM60.4393 7.16706C59.1179 7.16706 58.4971 7.96824 58.4971 7.96824V3.74413H56.5753V14.8951H58.1971C58.3573 14.8951 58.4771 14.7549 58.4771 14.6147V14.2745C58.4771 14.2745 59.0979 15.0953 60.4189 15.0953C62.6012 15.0953 64.3028 13.4141 64.3028 11.1318C64.3028 8.84942 62.6012 7.16706 60.4393 7.16706ZM60.1189 13.2733C59.3779 13.2733 58.7975 12.8933 58.4971 12.4525V9.7698C58.7975 9.36941 59.4381 8.94902 60.1189 8.94902C61.4 8.94902 62.381 9.7498 62.381 11.1112C62.381 12.4725 61.4002 13.2733 60.1189 13.2733ZM55.5746 10.4308V14.9151H53.6524V10.6508C53.6524 9.40981 53.252 8.90902 52.1716 8.90902C51.5912 8.90902 50.9904 9.20942 50.6094 9.65001V14.8953H48.6881V7.36766H50.2091C50.3693 7.36766 50.4895 7.50785 50.4895 7.64805V7.96844C51.05 7.38765 51.7906 7.16726 52.5312 7.16726C53.3722 7.16726 54.073 7.40785 54.6336 7.88824C55.314 8.44883 55.5746 9.16942 55.5746 10.4308ZM44.0228 7.16706C42.7018 7.16706 42.081 7.96824 42.081 7.96824V3.74413H40.1593V14.8951H41.7806C41.9408 14.8951 42.061 14.7549 42.061 14.6147V14.2745C42.061 14.2745 42.6818 15.0953 44.0028 15.0953C46.1851 15.0953 47.8867 13.4141 47.8867 11.1318C47.9067 8.84922 46.2051 7.16706 44.0228 7.16706ZM43.7024 13.2733C42.9618 13.2733 42.3814 12.8933 42.081 12.4525V9.7698C42.3814 9.36941 43.022 8.94902 43.7024 8.94902C44.984 8.94902 45.9647 9.7498 45.9647 11.1112C45.9647 12.4725 44.984 13.2733 43.7024 13.2733ZM38.4975 7.16706C39.0779 7.16706 39.3783 7.26746 39.3783 7.26746V9.04902C39.3783 9.04902 37.7767 8.50843 36.7759 9.64981V14.9149H34.8538V7.36745H36.4755C36.6357 7.36745 36.7555 7.50765 36.7555 7.64785V7.96824C37.1163 7.54765 37.8971 7.16706 38.4975 7.16706ZM18.5381 14.2143C18.4381 13.9741 18.3379 13.7139 18.2379 13.4935C18.0775 13.1333 17.9173 12.7927 17.7775 12.4726L17.7575 12.4525C16.3759 9.44941 14.8948 6.40667 13.333 3.40394L13.273 3.28353C13.1087 2.97203 12.9487 2.65835 12.7928 2.34256C12.5924 1.98196 12.3924 1.60197 12.072 1.24138C11.4314 0.440591 10.5105 0 9.52968 0C8.5285 0 7.62772 0.440594 6.96733 1.20118C6.66694 1.56137 6.44654 1.94177 6.24654 2.30236C6.0903 2.61795 5.93022 2.93163 5.76635 3.24334L5.70616 3.36373C4.16459 6.36647 2.66322 9.40941 1.28184 12.4124L1.26165 12.4522C1.12165 12.7729 0.961252 13.1131 0.801055 13.4731C0.701057 13.6935 0.601059 13.9337 0.501061 14.1939C0.240667 14.9345 0.160464 15.6353 0.260862 16.3563C0.481058 17.8578 1.48184 19.1186 2.86341 19.6796C3.384 19.9 3.92459 20 4.48498 20C4.64517 20 4.84518 19.98 5.00557 19.9598C5.66636 19.8798 6.34694 19.6598 7.00773 19.2794C7.82851 18.8188 8.60929 18.1584 9.49008 17.1975C10.3709 18.1584 11.1716 18.8188 11.9724 19.2794C12.6334 19.6598 13.3138 19.8798 13.9744 19.9598C14.1346 19.9802 14.335 20 14.4952 20C15.0558 20 15.6162 19.9 16.1165 19.6796C17.5181 19.1186 18.4989 17.8378 18.7193 16.3563C18.8783 15.6557 18.7983 14.9553 18.5381 14.2143ZM9.50948 15.2553C8.4283 13.8939 7.72751 12.6127 7.48752 11.532C7.38752 11.0714 7.36732 10.671 7.42752 10.3106C7.46732 9.9902 7.58772 9.7098 7.74791 9.46961C8.1283 8.92942 8.7689 8.58883 9.50968 8.58883C10.2507 8.58883 10.9113 8.90922 11.2716 9.46961C11.4318 9.7098 11.5518 9.9904 11.5922 10.3106C11.652 10.6712 11.632 11.0914 11.532 11.532C11.291 12.5927 10.5903 13.8741 9.50948 15.2553ZM17.4969 16.1963C17.3569 17.2373 16.6561 18.1384 15.6754 18.5388C15.195 18.7388 14.6742 18.799 14.154 18.7388C13.6536 18.6786 13.1528 18.5184 12.6326 18.2184C11.9118 17.8176 11.1912 17.1975 10.3503 16.2763C11.6714 14.6549 12.4722 13.1731 12.7726 11.8522C12.9128 11.2314 12.933 10.671 12.8726 10.1502C12.7928 9.64981 12.6124 9.18922 12.3322 8.78882C11.7112 7.88764 10.6701 7.36745 9.50928 7.36745C8.3485 7.36745 7.30732 7.90804 6.68673 8.78882C6.40654 9.18922 6.22614 9.64981 6.14614 10.1502C6.06615 10.671 6.08595 11.2514 6.24614 11.8522C6.54634 13.1731 7.36712 14.6747 8.6683 16.2963C7.84751 17.2173 7.10673 17.838 6.38594 18.2384C5.86535 18.5388 5.36516 18.699 4.86477 18.7588C4.32438 18.819 3.80359 18.7388 3.3432 18.5588C2.36242 18.1584 1.66164 17.2573 1.52164 16.2163C1.46164 15.7159 1.50144 15.2155 1.70184 14.6549C1.76164 14.4545 1.86203 14.2545 1.96203 14.0143C2.10223 13.6939 2.26202 13.3533 2.42242 13.0131L2.44262 12.9733C3.8238 9.9902 5.30517 6.94726 6.84673 3.98452L6.90673 3.86413C7.06713 3.56413 7.22733 3.24374 7.38732 2.94334C7.54752 2.62295 7.72751 2.32255 7.94791 2.06216C8.3683 1.58217 8.92869 1.32157 9.54948 1.32157C10.1703 1.32157 10.7307 1.58217 11.151 2.06216C11.3714 2.32315 11.5514 2.62355 11.7116 2.94334C11.872 3.24374 12.0322 3.56413 12.192 3.86413L12.2522 3.98452C13.7703 6.95957 15.232 9.96305 16.6365 12.9933V13.0133C16.7969 13.3341 16.9369 13.6941 17.0971 14.0149C17.1971 14.2547 17.2973 14.4547 17.3573 14.6551C17.5171 15.1751 17.5771 15.6759 17.4969 16.1963Z" fill="#191825" fill-opacity="0.5"/>
</svg>
