<svg width="109" height="20" viewBox="0 0 109 20" fill="none" xmlns="http://www.w3.org/2000/svg">
<path d="M62.6818 19.4645L70.997 0.646722C71.1284 0.361172 70.9742 0.115599 70.6544 0.115599H64.8292C64.6586 0.125286 64.4936 0.180088 64.3511 0.274406C64.2086 0.368723 64.0938 0.499176 64.0182 0.652433L55.8058 19.4645C55.6858 19.7557 55.84 19.9956 56.1541 19.9956H61.8709C62.1907 19.9956 62.5562 19.7557 62.6818 19.4645ZM92.499 14.3988L105.406 0.12131H90.3116L86.8965 5.62101H92.8188L79.7006 20.0013H95.6743L101.625 14.3988H92.499ZM37.2622 0.115599H27.2679C26.9716 0.132769 26.6851 0.2279 26.4374 0.391366C26.1897 0.554832 25.9896 0.780831 25.8573 1.04649L17.9932 19.0704C17.7648 19.5844 18.0446 20.0013 18.6043 20.0013H23.5558C24.1154 20.0013 24.7551 19.5844 24.9721 19.0761L27.2165 13.9648H29.5409C30.2662 13.9191 30.5746 14.1875 30.1748 15.027L28.4501 19.0704C28.2331 19.5844 28.5072 20.0013 29.0669 20.0013H34.0183C34.3157 19.9857 34.6037 19.8913 34.8525 19.7277C35.1014 19.5641 35.3023 19.3373 35.4346 19.0704L37.6848 13.8677C38.3929 12.1772 37.3707 10.8694 35.8858 10.8009C37.1993 10.3269 38.4101 9.01905 38.9526 7.83116L40.1177 5.08988C41.5226 1.90314 40.5231 0.075622 37.2622 0.12131M34.3495 5.80376L33.116 8.51648C32.8304 9.16754 32.4192 9.21894 32.008 9.2018H29.2268L31.0886 4.97566H33.7556C34.4067 5.01564 34.5723 5.24979 34.3495 5.80376ZM56.7138 0.109888H46.1256C45.9136 0.120939 45.7083 0.188093 45.5307 0.304486C45.3531 0.420879 45.2095 0.582339 45.1148 0.772364L37.0109 19.3331C36.8567 19.6986 37.0451 19.9899 37.4449 19.9899H48.7812C52.3735 19.9385 54.4351 19.1447 56.0742 15.3411L57.2392 12.8054C58.153 10.6353 57.2564 9.69295 55.5431 9.41882C56.9708 8.97907 58.0445 7.63699 58.5071 6.45481L59.4551 4.44454C60.6202 1.76037 59.6493 0.075622 56.7081 0.109888M51.5168 12.5599L50.7972 14.0048C50.4374 15.0099 49.8092 15.284 48.924 15.2954H45.6116L47.1993 11.5547H50.5117C51.4483 11.6233 51.8138 11.8517 51.5168 12.5599ZM53.4186 5.90084L52.9217 7.04304L52.8475 7.19153C52.765 7.42979 52.606 7.63406 52.3952 7.77249C52.1845 7.91092 51.9339 7.97572 51.6824 7.9568H48.8098L50.1233 4.92997H53.0531C53.5785 4.96424 53.6642 5.3069 53.4186 5.90084ZM72.8303 0.115599L70.3688 5.62101H73.8811C74.121 5.62101 74.2352 5.79233 74.1381 6.01506L67.9988 19.6072C67.896 19.8243 68.0159 20.0013 68.2558 20.0013H74.5093C74.7492 20.0013 75.0233 19.8243 75.1204 19.6015L81.0141 6.01506C81.0706 5.90078 81.1564 5.80355 81.2628 5.73331C81.3691 5.66307 81.4922 5.62234 81.6195 5.61529H85.2231L88.6155 0.115599H72.8303ZM20.9458 6.88885L21.7225 5.19268C23.2873 1.61759 22.2536 0.081333 19.1811 0.12131H11.7854C8.74142 0.081333 6.20573 1.79463 4.80083 4.98137L2.51642 11.4348H0.357666L4.48672 17.0087L11.3114 11.4348H9.57522L11.5798 6.78034C11.9053 6.01506 12.465 5.64956 13.0646 5.62101H14.2297C14.5038 5.63243 14.6923 5.71809 14.8008 5.83802L18.4216 2.79406L20.9458 6.88885Z" fill="#191825" fill-opacity="0.5"/>
<path d="M4.33258 18.6464L1.29433 14.7972L1.13442 15.1399C-0.2762 18.3495 -0.042049 19.9485 3.00191 19.9942H10.3006C13.3217 19.9485 15.9659 18.3495 17.3822 15.1399L19.5524 10.1656H21.4941L18.1818 4.58594L11.4142 10.1656H13.2703L11.8997 13.3352C11.5684 14.0091 11.0658 14.3746 10.529 14.3974H9.55814L4.33258 18.6464Z" fill="#191825" fill-opacity="0.5"/>
<path d="M107.81 7.59837e-05C108.079 7.59837e-05 108.307 0.097163 108.496 0.285626C108.684 0.474089 108.781 0.702529 108.781 0.970946C108.781 1.23365 108.684 1.46209 108.496 1.65627C108.307 1.85044 108.079 1.94182 107.81 1.94182C107.683 1.94378 107.556 1.91944 107.438 1.87032C107.32 1.82119 107.213 1.74833 107.125 1.65627C106.936 1.46209 106.839 1.23365 106.839 0.970946C106.839 0.70824 106.936 0.468378 107.125 0.285626C107.214 0.193833 107.32 0.121151 107.438 0.0720465C107.556 0.0229414 107.683 -0.00155019 107.81 7.59837e-05ZM107.81 1.75906C107.915 1.76143 108.019 1.7424 108.116 1.70312C108.214 1.66384 108.302 1.60515 108.376 1.53062C108.45 1.45707 108.509 1.36893 108.549 1.27167C108.588 1.1744 108.607 1.0701 108.604 0.965235C108.606 0.861323 108.587 0.758108 108.547 0.661884C108.508 0.565661 108.45 0.478446 108.376 0.405557C108.302 0.330762 108.214 0.271888 108.117 0.23259C108.019 0.193292 107.915 0.17441 107.81 0.177117C107.706 0.174857 107.603 0.193967 107.507 0.233261C107.41 0.272556 107.323 0.331198 107.251 0.405557C107.096 0.559754 107.022 0.748217 107.022 0.965235C107.022 1.18225 107.096 1.37643 107.251 1.53062C107.405 1.68482 107.593 1.75906 107.81 1.75906ZM108.307 1.48494H108.079L107.793 1.07374H107.673V1.48494H107.468V0.439823H107.793C107.907 0.439823 107.999 0.468378 108.067 0.519777C108.136 0.576887 108.176 0.65113 108.176 0.748217C108.176 0.873859 108.107 0.970946 107.976 1.02235L108.307 1.48494ZM107.679 0.902414H107.787C107.919 0.902414 107.982 0.851015 107.982 0.753928C107.982 0.656841 107.924 0.611153 107.793 0.611153H107.679V0.902414Z" fill="#191825" fill-opacity="0.5"/>
</svg>
