<svg width="32" height="32" viewBox="0 0 32 32" fill="none" xmlns="http://www.w3.org/2000/svg">
<path d="M23.8912 19.094C23.5459 19.4286 23.3872 19.9126 23.4659 20.3873L24.6512 26.9473C24.7512 27.5033 24.5165 28.066 24.0512 28.3873C23.5952 28.7206 22.9885 28.7606 22.4912 28.494L16.5859 25.414C16.3805 25.3046 16.1525 25.246 15.9192 25.2393H15.5579C15.4325 25.258 15.3099 25.298 15.1979 25.3593L9.29118 28.454C8.99918 28.6006 8.66852 28.6526 8.34452 28.6006C7.55518 28.4513 7.02852 27.6993 7.15785 26.906L8.34452 20.346C8.42318 19.8673 8.26452 19.3806 7.91918 19.0406L3.10452 14.374C2.70185 13.9833 2.56185 13.3966 2.74585 12.8673C2.92452 12.3393 3.38052 11.954 3.93118 11.8673L10.5578 10.906C11.0619 10.854 11.5045 10.5473 11.7312 10.094L14.6512 4.10732C14.7205 3.97398 14.8099 3.85132 14.9179 3.74732L15.0379 3.65398C15.1005 3.58465 15.1725 3.52732 15.2525 3.48065L15.3979 3.42732L15.6245 3.33398H16.1859C16.6872 3.38598 17.1285 3.68598 17.3592 4.13398L20.3179 10.094C20.5312 10.53 20.9459 10.8327 21.4245 10.906L28.0512 11.8673C28.6112 11.9473 29.0792 12.334 29.2645 12.8673C29.4392 13.402 29.2885 13.9886 28.8779 14.374L23.8912 19.094Z" fill="#FACD49"/>
</svg>
